<?xml version="1.0" encoding="UTF-8" standalone="no"?>
<!DOCTYPE svg PUBLIC "-//W3C//DTD SVG 1.1//EN"
 "http://www.w3.org/Graphics/SVG/1.1/DTD/svg11.dtd">
<!-- Generated by graphviz version 2.40.1 (20161225.0304)
 -->
<!-- Title: dependencies Pages: 1 -->
<svg width="1369pt" height="284pt"
 viewBox="0.00 0.00 1369.00 284.00" xmlns="http://www.w3.org/2000/svg" xmlns:xlink="http://www.w3.org/1999/xlink">
<g id="graph0" class="graph" transform="scale(1 1) rotate(0) translate(4 280)">
<title>dependencies</title>
<polygon fill="#ffffff" stroke="transparent" points="-4,4 -4,-280 1365,-280 1365,4 -4,4"/>
<text text-anchor="start" x="659.5091" y="-42.4" font-family="sans-serif" font-weight="bold" font-size="14.00" fill="#000000">Legend</text>
<polygon fill="#ffffb3" stroke="transparent" points="446.5,-10 446.5,-30 466.5,-30 466.5,-10 446.5,-10"/>
<text text-anchor="start" x="470.129" y="-15.4" font-family="sans-serif" font-size="14.00" fill="#000000"> &#160;Declarations</text>
<polygon fill="#8dd3c7" stroke="transparent" points="559.5,-10 559.5,-30 579.5,-30 579.5,-10 559.5,-10"/>
<text text-anchor="start" x="583.2251" y="-15.4" font-family="sans-serif" font-size="14.00" fill="#000000"> &#160;Module</text>
<polygon fill="#80b1d3" stroke="transparent" points="645.5,-10 645.5,-30 665.5,-30 665.5,-10 645.5,-10"/>
<text text-anchor="start" x="669.2812" y="-15.4" font-family="sans-serif" font-size="14.00" fill="#000000"> &#160;Bootstrap</text>
<polygon fill="#fdb462" stroke="transparent" points="742.5,-10 742.5,-30 762.5,-30 762.5,-10 742.5,-10"/>
<text text-anchor="start" x="766.1732" y="-15.4" font-family="sans-serif" font-size="14.00" fill="#000000"> &#160;Providers</text>
<polygon fill="#fb8072" stroke="transparent" points="838.5,-10 838.5,-30 858.5,-30 858.5,-10 838.5,-10"/>
<text text-anchor="start" x="862.2258" y="-15.4" font-family="sans-serif" font-size="14.00" fill="#000000"> &#160;Exports</text>
<g id="clust1" class="cluster">
<title>cluster_ChatBotModule</title>
<polygon fill="none" stroke="#000000" stroke-dasharray="1,5" points="8,-70 8,-268 1353,-268 1353,-70 8,-70"/>
</g>
<g id="clust2" class="cluster">
<title>cluster_ChatBotModule_declarations</title>
<polygon fill="none" stroke="#000000" points="536,-78 536,-130 1345,-130 1345,-78 536,-78"/>
</g>
<g id="clust8" class="cluster">
<title>cluster_ChatBotModule_imports</title>
<polygon fill="none" stroke="#000000" points="414,-78 414,-130 528,-130 528,-78 414,-78"/>
</g>
<g id="clust9" class="cluster">
<title>cluster_ChatBotModule_exports</title>
<polygon fill="none" stroke="#000000" points="287,-208 287,-260 1114,-260 1114,-208 287,-208"/>
</g>
<g id="clust11" class="cluster">
<title>cluster_ChatBotModule_providers</title>
<polygon fill="none" stroke="#000000" points="16,-78 16,-130 406,-130 406,-78 16,-78"/>
</g>
<!-- ChatBotComponent -->
<g id="node1" class="node">
<title>ChatBotComponent</title>
<polygon fill="#ffffb3" stroke="#000000" points="1337.0014,-122 1208.9986,-122 1208.9986,-86 1337.0014,-86 1337.0014,-122"/>
<text text-anchor="middle" x="1273" y="-99.8" font-family="Times,serif" font-size="14.00" fill="#000000">ChatBotComponent</text>
</g>
<!-- ChatBotModule -->
<g id="node6" class="node">
<title>ChatBotModule</title>
<polygon fill="#8dd3c7" stroke="#000000" points="741.219,-187 738.219,-191 717.219,-191 714.219,-187 634.781,-187 634.781,-151 741.219,-151 741.219,-187"/>
<text text-anchor="middle" x="688" y="-164.8" font-family="Times,serif" font-size="14.00" fill="#000000">ChatBotModule</text>
</g>
<!-- ChatBotComponent&#45;&gt;ChatBotModule -->
<g id="edge1" class="edge">
<title>ChatBotComponent&#45;&gt;ChatBotModule</title>
<path fill="none" stroke="#000000" d="M1273,-122.1061C1273,-141.3391 1273,-169 1273,-169 1273,-169 751.2059,-169 751.2059,-169"/>
<polygon fill="#000000" stroke="#000000" points="751.2059,-165.5001 741.2059,-169 751.2058,-172.5001 751.2059,-165.5001"/>
</g>
<!-- ChatHeaderPanelComponent -->
<g id="node2" class="node">
<title>ChatHeaderPanelComponent</title>
<polygon fill="#ffffb3" stroke="#000000" points="1190.7878,-122 1011.2122,-122 1011.2122,-86 1190.7878,-86 1190.7878,-122"/>
<text text-anchor="middle" x="1101" y="-99.8" font-family="Times,serif" font-size="14.00" fill="#000000">ChatHeaderPanelComponent</text>
</g>
<!-- ChatHeaderPanelComponent&#45;&gt;ChatBotModule -->
<g id="edge2" class="edge">
<title>ChatHeaderPanelComponent&#45;&gt;ChatBotModule</title>
<path fill="none" stroke="#000000" d="M1058.5534,-122.0225C1058.5534,-139.3734 1058.5534,-163 1058.5534,-163 1058.5534,-163 751.4859,-163 751.4859,-163"/>
<polygon fill="#000000" stroke="#000000" points="751.4859,-159.5001 741.4859,-163 751.4859,-166.5001 751.4859,-159.5001"/>
</g>
<!-- InputBarComponent -->
<g id="node3" class="node">
<title>InputBarComponent</title>
<polygon fill="#ffffb3" stroke="#000000" points="993.5954,-122 862.4046,-122 862.4046,-86 993.5954,-86 993.5954,-122"/>
<text text-anchor="middle" x="928" y="-99.8" font-family="Times,serif" font-size="14.00" fill="#000000">InputBarComponent</text>
</g>
<!-- InputBarComponent&#45;&gt;ChatBotModule -->
<g id="edge3" class="edge">
<title>InputBarComponent&#45;&gt;ChatBotModule</title>
<path fill="none" stroke="#000000" d="M909.4231,-122.2396C909.4231,-137.5706 909.4231,-157 909.4231,-157 909.4231,-157 751.3181,-157 751.3181,-157"/>
<polygon fill="#000000" stroke="#000000" points="751.3181,-153.5001 741.3181,-157 751.3181,-160.5001 751.3181,-153.5001"/>
</g>
<!-- MessageListComponent -->
<g id="node4" class="node">
<title>MessageListComponent</title>
<polygon fill="#ffffb3" stroke="#000000" points="844.0884,-122 691.9116,-122 691.9116,-86 844.0884,-86 844.0884,-122"/>
<text text-anchor="middle" x="768" y="-99.8" font-family="Times,serif" font-size="14.00" fill="#000000">MessageListComponent</text>
</g>
<!-- MessageListComponent&#45;&gt;ChatBotModule -->
<g id="edge4" class="edge">
<title>MessageListComponent&#45;&gt;ChatBotModule</title>
<path fill="none" stroke="#000000" d="M716.5326,-122.1061C716.5326,-122.1061 716.5326,-140.991 716.5326,-140.991"/>
<polygon fill="#000000" stroke="#000000" points="713.0327,-140.9909 716.5326,-150.991 720.0327,-140.991 713.0327,-140.9909"/>
</g>
<!-- MessageComponent -->
<g id="node5" class="node">
<title>MessageComponent</title>
<polygon fill="#ffffb3" stroke="#000000" points="674.3104,-122 543.6896,-122 543.6896,-86 674.3104,-86 674.3104,-122"/>
<text text-anchor="middle" x="609" y="-99.8" font-family="Times,serif" font-size="14.00" fill="#000000">MessageComponent</text>
</g>
<!-- MessageComponent&#45;&gt;ChatBotModule -->
<g id="edge5" class="edge">
<title>MessageComponent&#45;&gt;ChatBotModule</title>
<path fill="none" stroke="#000000" d="M654.5228,-122.1061C654.5228,-122.1061 654.5228,-140.991 654.5228,-140.991"/>
<polygon fill="#000000" stroke="#000000" points="651.0229,-140.9909 654.5228,-150.991 658.0229,-140.991 651.0229,-140.9909"/>
</g>
<!-- ChatBotComponent  -->
<g id="node8" class="node">
<title>ChatBotComponent </title>
<polygon fill="#fb8072" stroke="#000000" points="1105.5023,-252 974.4977,-252 974.4977,-216 1105.5023,-216 1105.5023,-252"/>
<text text-anchor="middle" x="1040" y="-229.8" font-family="Times,serif" font-size="14.00" fill="#000000">ChatBotComponent </text>
</g>
<!-- ChatBotModule&#45;&gt;ChatBotComponent  -->
<g id="edge7" class="edge">
<title>ChatBotModule&#45;&gt;ChatBotComponent </title>
<path fill="none" stroke="#000000" stroke-dasharray="5,2" d="M741.2425,-175C826.4335,-175 983.8985,-175 983.8985,-175 983.8985,-175 983.8985,-205.9775 983.8985,-205.9775"/>
<polygon fill="#000000" stroke="#000000" points="980.3986,-205.9774 983.8985,-215.9775 987.3986,-205.9775 980.3986,-205.9774"/>
</g>
<!-- ChatHeaderPanelComponent  -->
<g id="node9" class="node">
<title>ChatHeaderPanelComponent </title>
<polygon fill="#fb8072" stroke="#000000" points="956.2877,-252 773.7123,-252 773.7123,-216 956.2877,-216 956.2877,-252"/>
<text text-anchor="middle" x="865" y="-229.8" font-family="Times,serif" font-size="14.00" fill="#000000">ChatHeaderPanelComponent </text>
</g>
<!-- ChatBotModule&#45;&gt;ChatHeaderPanelComponent  -->
<g id="edge8" class="edge">
<title>ChatBotModule&#45;&gt;ChatHeaderPanelComponent </title>
<path fill="none" stroke="#000000" stroke-dasharray="5,2" d="M741.3474,-181C773.7148,-181 808.8252,-181 808.8252,-181 808.8252,-181 808.8252,-205.7604 808.8252,-205.7604"/>
<polygon fill="#000000" stroke="#000000" points="805.3253,-205.7604 808.8252,-215.7604 812.3253,-205.7604 805.3253,-205.7604"/>
</g>
<!-- InputBarComponent  -->
<g id="node10" class="node">
<title>InputBarComponent </title>
<polygon fill="#fb8072" stroke="#000000" points="755.096,-252 620.904,-252 620.904,-216 755.096,-216 755.096,-252"/>
<text text-anchor="middle" x="688" y="-229.8" font-family="Times,serif" font-size="14.00" fill="#000000">InputBarComponent </text>
</g>
<!-- ChatBotModule&#45;&gt;InputBarComponent  -->
<g id="edge9" class="edge">
<title>ChatBotModule&#45;&gt;InputBarComponent </title>
<path fill="none" stroke="#000000" stroke-dasharray="5,2" d="M688,-187.1061C688,-187.1061 688,-205.991 688,-205.991"/>
<polygon fill="#000000" stroke="#000000" points="684.5001,-205.9909 688,-215.991 691.5001,-205.991 684.5001,-205.9909"/>
</g>
<!-- MessageListComponent  -->
<g id="node11" class="node">
<title>MessageListComponent </title>
<polygon fill="#fb8072" stroke="#000000" points="602.5889,-252 447.4111,-252 447.4111,-216 602.5889,-216 602.5889,-252"/>
<text text-anchor="middle" x="525" y="-229.8" font-family="Times,serif" font-size="14.00" fill="#000000">MessageListComponent </text>
</g>
<!-- ChatBotModule&#45;&gt;MessageListComponent  -->
<g id="edge10" class="edge">
<title>ChatBotModule&#45;&gt;MessageListComponent </title>
<path fill="none" stroke="#000000" stroke-dasharray="5,2" d="M634.6886,-181C604.7405,-181 573.3196,-181 573.3196,-181 573.3196,-181 573.3196,-205.7604 573.3196,-205.7604"/>
<polygon fill="#000000" stroke="#000000" points="569.8197,-205.7604 573.3196,-215.7604 576.8197,-205.7604 569.8197,-205.7604"/>
</g>
<!-- MessageComponent  -->
<g id="node12" class="node">
<title>MessageComponent </title>
<polygon fill="#fb8072" stroke="#000000" points="428.8101,-252 295.1899,-252 295.1899,-216 428.8101,-216 428.8101,-252"/>
<text text-anchor="middle" x="362" y="-229.8" font-family="Times,serif" font-size="14.00" fill="#000000">MessageComponent </text>
</g>
<!-- ChatBotModule&#45;&gt;MessageComponent  -->
<g id="edge11" class="edge">
<title>ChatBotModule&#45;&gt;MessageComponent </title>
<path fill="none" stroke="#000000" stroke-dasharray="5,2" d="M634.8482,-175C558.1002,-175 425.347,-175 425.347,-175 425.347,-175 425.347,-205.9775 425.347,-205.9775"/>
<polygon fill="#000000" stroke="#000000" points="421.847,-205.9774 425.347,-215.9775 428.847,-205.9775 421.847,-205.9774"/>
</g>
<!-- SharedModule -->
<g id="node7" class="node">
<title>SharedModule</title>
<polygon fill="#8dd3c7" stroke="#000000" points="520.4231,-122 517.4231,-126 496.4231,-126 493.4231,-122 421.5769,-122 421.5769,-86 520.4231,-86 520.4231,-122"/>
<text text-anchor="middle" x="471" y="-99.8" font-family="Times,serif" font-size="14.00" fill="#000000">SharedModule</text>
</g>
<!-- SharedModule&#45;&gt;ChatBotModule -->
<g id="edge6" class="edge">
<title>SharedModule&#45;&gt;ChatBotModule</title>
<path fill="none" stroke="#000000" d="M483.7085,-122.2396C483.7085,-137.5706 483.7085,-157 483.7085,-157 483.7085,-157 624.8581,-157 624.8581,-157"/>
<polygon fill="#000000" stroke="#000000" points="624.8581,-160.5001 634.8581,-157 624.8581,-153.5001 624.8581,-160.5001"/>
</g>
<!-- DirectLineService -->
<g id="node13" class="node">
<title>DirectLineService</title>
<ellipse fill="#fdb462" stroke="#000000" cx="316" cy="-104" rx="81.6346" ry="18"/>
<text text-anchor="middle" x="316" y="-99.8" font-family="Times,serif" font-size="14.00" fill="#000000">DirectLineService</text>
</g>
<!-- DirectLineService&#45;&gt;ChatBotModule -->
<g id="edge12" class="edge">
<title>DirectLineService&#45;&gt;ChatBotModule</title>
<path fill="none" stroke="#000000" d="M346.456,-120.7492C346.456,-138.1922 346.456,-163 346.456,-163 346.456,-163 624.6338,-163 624.6338,-163"/>
<polygon fill="#000000" stroke="#000000" points="624.6338,-166.5001 634.6338,-163 624.6337,-159.5001 624.6338,-166.5001"/>
</g>
<!-- AgentTransferService -->
<g id="node14" class="node">
<title>AgentTransferService</title>
<ellipse fill="#fdb462" stroke="#000000" cx="120" cy="-104" rx="96.0842" ry="18"/>
<text text-anchor="middle" x="120" y="-99.8" font-family="Times,serif" font-size="14.00" fill="#000000">AgentTransferService</text>
</g>
<!-- AgentTransferService&#45;&gt;ChatBotModule -->
<g id="edge13" class="edge">
<title>AgentTransferService&#45;&gt;ChatBotModule</title>
<path fill="none" stroke="#000000" d="M120,-122.1061C120,-141.3391 120,-169 120,-169 120,-169 624.8192,-169 624.8192,-169"/>
<polygon fill="#000000" stroke="#000000" points="624.8193,-172.5001 634.8192,-169 624.8192,-165.5001 624.8193,-172.5001"/>
</g>
</g>
</svg>
