<?xml version="1.0" encoding="UTF-8" standalone="no"?>
<!DOCTYPE svg PUBLIC "-//W3C//DTD SVG 1.1//EN"
 "http://www.w3.org/Graphics/SVG/1.1/DTD/svg11.dtd">
<!-- Generated by graphviz version 2.40.1 (20161225.0304)
 -->
<!-- Title: dependencies Pages: 1 -->
<svg width="1689pt" height="428pt"
 viewBox="0.00 0.00 1689.00 428.00" xmlns="http://www.w3.org/2000/svg" xmlns:xlink="http://www.w3.org/1999/xlink">
<g id="graph0" class="graph" transform="scale(1 1) rotate(0) translate(4 424)">
<title>dependencies</title>
<polygon fill="#ffffff" stroke="transparent" points="-4,4 -4,-424 1685,-424 1685,4 -4,4"/>
<text text-anchor="start" x="819.5091" y="-42.4" font-family="sans-serif" font-weight="bold" font-size="14.00" fill="#000000">Legend</text>
<polygon fill="#ffffb3" stroke="transparent" points="606.5,-10 606.5,-30 626.5,-30 626.5,-10 606.5,-10"/>
<text text-anchor="start" x="630.129" y="-15.4" font-family="sans-serif" font-size="14.00" fill="#000000"> &#160;Declarations</text>
<polygon fill="#8dd3c7" stroke="transparent" points="719.5,-10 719.5,-30 739.5,-30 739.5,-10 719.5,-10"/>
<text text-anchor="start" x="743.2251" y="-15.4" font-family="sans-serif" font-size="14.00" fill="#000000"> &#160;Module</text>
<polygon fill="#80b1d3" stroke="transparent" points="805.5,-10 805.5,-30 825.5,-30 825.5,-10 805.5,-10"/>
<text text-anchor="start" x="829.2812" y="-15.4" font-family="sans-serif" font-size="14.00" fill="#000000"> &#160;Bootstrap</text>
<polygon fill="#fdb462" stroke="transparent" points="902.5,-10 902.5,-30 922.5,-30 922.5,-10 902.5,-10"/>
<text text-anchor="start" x="926.1732" y="-15.4" font-family="sans-serif" font-size="14.00" fill="#000000"> &#160;Providers</text>
<polygon fill="#fb8072" stroke="transparent" points="998.5,-10 998.5,-30 1018.5,-30 1018.5,-10 998.5,-10"/>
<text text-anchor="start" x="1022.2258" y="-15.4" font-family="sans-serif" font-size="14.00" fill="#000000"> &#160;Exports</text>
<g id="clust1" class="cluster">
<title>cluster_ChatBotModule</title>
<polygon fill="none" stroke="#000000" stroke-dasharray="1,5" points="8,-70 8,-282 1353,-282 1353,-70 8,-70"/>
</g>
<g id="clust2" class="cluster">
<title>cluster_ChatBotModule_declarations</title>
<polygon fill="none" stroke="#000000" points="414,-78 414,-130 1223,-130 1223,-78 414,-78"/>
</g>
<g id="clust8" class="cluster">
<title>cluster_ChatBotModule_imports</title>
<polygon fill="none" stroke="#000000" points="1231,-78 1231,-130 1345,-130 1345,-78 1231,-78"/>
</g>
<g id="clust9" class="cluster">
<title>cluster_ChatBotModule_exports</title>
<polygon fill="none" stroke="#000000" points="405,-222 405,-274 1232,-274 1232,-222 405,-222"/>
</g>
<g id="clust11" class="cluster">
<title>cluster_ChatBotModule_providers</title>
<polygon fill="none" stroke="#000000" points="16,-78 16,-130 406,-130 406,-78 16,-78"/>
</g>
<g id="clust12" class="cluster">
<title>cluster_ChatBotPortalModule</title>
<polygon fill="none" stroke="#000000" stroke-dasharray="1,5" points="1361,-214 1361,-412 1673,-412 1673,-214 1361,-214"/>
</g>
<g id="clust13" class="cluster">
<title>cluster_ChatBotPortalModule_declarations</title>
<polygon fill="none" stroke="#000000" points="1487,-222 1487,-274 1665,-274 1665,-222 1487,-222"/>
</g>
<g id="clust15" class="cluster">
<title>cluster_ChatBotPortalModule_imports</title>
<polygon fill="none" stroke="#000000" points="1369,-222 1369,-274 1479,-274 1479,-222 1369,-222"/>
</g>
<g id="clust17" class="cluster">
<title>cluster_ChatBotPortalModule_bootstrap</title>
<polygon fill="none" stroke="#000000" points="1485,-352 1485,-404 1665,-404 1665,-352 1485,-352"/>
</g>
<g id="clust19" class="cluster">
<title>cluster_HomeModule</title>
<polygon fill="none" stroke="#000000" stroke-dasharray="1,5" points="1361,-138 1361,-206 1653,-206 1653,-138 1361,-138"/>
</g>
<g id="clust20" class="cluster">
<title>cluster_HomeModule_declarations</title>
<polygon fill="none" stroke="#000000" points="1513,-146 1513,-198 1645,-198 1645,-146 1513,-146"/>
</g>
<g id="clust23" class="cluster">
<title>cluster_HomeModule_exports</title>
<polygon fill="none" stroke="#000000" points="1369,-146 1369,-198 1505,-198 1505,-146 1369,-146"/>
</g>
<!-- ChatBotComponent -->
<g id="node1" class="node">
<title>ChatBotComponent</title>
<polygon fill="#ffffb3" stroke="#000000" points="1215.0014,-122 1086.9986,-122 1086.9986,-86 1215.0014,-86 1215.0014,-122"/>
<text text-anchor="middle" x="1151" y="-99.8" font-family="Times,serif" font-size="14.00" fill="#000000">ChatBotComponent</text>
</g>
<!-- ChatBotModule -->
<g id="node6" class="node">
<title>ChatBotModule</title>
<polygon fill="#8dd3c7" stroke="#000000" points="859.219,-190 856.219,-194 835.219,-194 832.219,-190 752.781,-190 752.781,-154 859.219,-154 859.219,-190"/>
<text text-anchor="middle" x="806" y="-167.8" font-family="Times,serif" font-size="14.00" fill="#000000">ChatBotModule</text>
</g>
<!-- ChatBotComponent&#45;&gt;ChatBotModule -->
<g id="edge1" class="edge">
<title>ChatBotComponent&#45;&gt;ChatBotModule</title>
<path fill="none" stroke="#000000" d="M1174.0836,-122.302C1174.0836,-140.2699 1174.0836,-165 1174.0836,-165 1174.0836,-165 869.1294,-165 869.1294,-165"/>
<polygon fill="#000000" stroke="#000000" points="869.1294,-161.5001 859.1294,-165 869.1294,-168.5001 869.1294,-161.5001"/>
</g>
<!-- ChatHeaderPanelComponent -->
<g id="node2" class="node">
<title>ChatHeaderPanelComponent</title>
<polygon fill="#ffffb3" stroke="#000000" points="1068.7878,-122 889.2122,-122 889.2122,-86 1068.7878,-86 1068.7878,-122"/>
<text text-anchor="middle" x="979" y="-99.8" font-family="Times,serif" font-size="14.00" fill="#000000">ChatHeaderPanelComponent</text>
</g>
<!-- ChatHeaderPanelComponent&#45;&gt;ChatBotModule -->
<g id="edge2" class="edge">
<title>ChatHeaderPanelComponent&#45;&gt;ChatBotModule</title>
<path fill="none" stroke="#000000" d="M1009.6313,-122.027C1009.6313,-138.3976 1009.6313,-160 1009.6313,-160 1009.6313,-160 869.2357,-160 869.2357,-160"/>
<polygon fill="#000000" stroke="#000000" points="869.2358,-156.5001 859.2357,-160 869.2357,-163.5001 869.2358,-156.5001"/>
</g>
<!-- InputBarComponent -->
<g id="node3" class="node">
<title>InputBarComponent</title>
<polygon fill="#ffffb3" stroke="#000000" points="871.5954,-122 740.4046,-122 740.4046,-86 871.5954,-86 871.5954,-122"/>
<text text-anchor="middle" x="806" y="-99.8" font-family="Times,serif" font-size="14.00" fill="#000000">InputBarComponent</text>
</g>
<!-- InputBarComponent&#45;&gt;ChatBotModule -->
<g id="edge3" class="edge">
<title>InputBarComponent&#45;&gt;ChatBotModule</title>
<path fill="none" stroke="#000000" d="M806,-122.2228C806,-122.2228 806,-143.7269 806,-143.7269"/>
<polygon fill="#000000" stroke="#000000" points="802.5001,-143.7269 806,-153.7269 809.5001,-143.727 802.5001,-143.7269"/>
</g>
<!-- MessageListComponent -->
<g id="node4" class="node">
<title>MessageListComponent</title>
<polygon fill="#ffffb3" stroke="#000000" points="722.0884,-122 569.9116,-122 569.9116,-86 722.0884,-86 722.0884,-122"/>
<text text-anchor="middle" x="646" y="-99.8" font-family="Times,serif" font-size="14.00" fill="#000000">MessageListComponent</text>
</g>
<!-- MessageListComponent&#45;&gt;ChatBotModule -->
<g id="edge4" class="edge">
<title>MessageListComponent&#45;&gt;ChatBotModule</title>
<path fill="none" stroke="#000000" d="M670.5147,-122.027C670.5147,-138.3976 670.5147,-160 670.5147,-160 670.5147,-160 742.8415,-160 742.8415,-160"/>
<polygon fill="#000000" stroke="#000000" points="742.8415,-163.5001 752.8415,-160 742.8415,-156.5001 742.8415,-163.5001"/>
</g>
<!-- MessageComponent -->
<g id="node5" class="node">
<title>MessageComponent</title>
<polygon fill="#ffffb3" stroke="#000000" points="552.3104,-122 421.6896,-122 421.6896,-86 552.3104,-86 552.3104,-122"/>
<text text-anchor="middle" x="487" y="-99.8" font-family="Times,serif" font-size="14.00" fill="#000000">MessageComponent</text>
</g>
<!-- MessageComponent&#45;&gt;ChatBotModule -->
<g id="edge5" class="edge">
<title>MessageComponent&#45;&gt;ChatBotModule</title>
<path fill="none" stroke="#000000" d="M505.2183,-122.302C505.2183,-140.2699 505.2183,-165 505.2183,-165 505.2183,-165 742.5729,-165 742.5729,-165"/>
<polygon fill="#000000" stroke="#000000" points="742.5729,-168.5001 752.5729,-165 742.5728,-161.5001 742.5729,-168.5001"/>
</g>
<!-- ChatBotComponent  -->
<g id="node8" class="node">
<title>ChatBotComponent </title>
<polygon fill="#fb8072" stroke="#000000" points="1223.5023,-266 1092.4977,-266 1092.4977,-230 1223.5023,-230 1223.5023,-266"/>
<text text-anchor="middle" x="1158" y="-243.8" font-family="Times,serif" font-size="14.00" fill="#000000">ChatBotComponent </text>
</g>
<!-- ChatBotModule&#45;&gt;ChatBotComponent  -->
<g id="edge7" class="edge">
<title>ChatBotModule&#45;&gt;ChatBotComponent </title>
<path fill="none" stroke="#000000" stroke-dasharray="5,2" d="M859.2931,-180C951.9996,-180 1133.1664,-180 1133.1664,-180 1133.1664,-180 1133.1664,-219.7772 1133.1664,-219.7772"/>
<polygon fill="#000000" stroke="#000000" points="1129.6665,-219.7772 1133.1664,-229.7772 1136.6665,-219.7773 1129.6665,-219.7772"/>
</g>
<!-- ChatHeaderPanelComponent  -->
<g id="node9" class="node">
<title>ChatHeaderPanelComponent </title>
<polygon fill="#fb8072" stroke="#000000" points="1074.2877,-266 891.7123,-266 891.7123,-230 1074.2877,-230 1074.2877,-266"/>
<text text-anchor="middle" x="983" y="-243.8" font-family="Times,serif" font-size="14.00" fill="#000000">ChatHeaderPanelComponent </text>
</g>
<!-- ChatBotModule&#45;&gt;ChatHeaderPanelComponent  -->
<g id="edge8" class="edge">
<title>ChatBotModule&#45;&gt;ChatHeaderPanelComponent </title>
<path fill="none" stroke="#000000" stroke-dasharray="5,2" d="M859.4398,-185C900.6363,-185 950.6187,-185 950.6187,-185 950.6187,-185 950.6187,-219.7778 950.6187,-219.7778"/>
<polygon fill="#000000" stroke="#000000" points="947.1188,-219.7778 950.6187,-229.7778 954.1188,-219.7778 947.1188,-219.7778"/>
</g>
<!-- InputBarComponent  -->
<g id="node10" class="node">
<title>InputBarComponent </title>
<polygon fill="#fb8072" stroke="#000000" points="873.096,-266 738.904,-266 738.904,-230 873.096,-230 873.096,-266"/>
<text text-anchor="middle" x="806" y="-243.8" font-family="Times,serif" font-size="14.00" fill="#000000">InputBarComponent </text>
</g>
<!-- ChatBotModule&#45;&gt;InputBarComponent  -->
<g id="edge9" class="edge">
<title>ChatBotModule&#45;&gt;InputBarComponent </title>
<path fill="none" stroke="#000000" stroke-dasharray="5,2" d="M806,-190.0109C806,-190.0109 806,-219.855 806,-219.855"/>
<polygon fill="#000000" stroke="#000000" points="802.5001,-219.8549 806,-229.855 809.5001,-219.855 802.5001,-219.8549"/>
</g>
<!-- MessageListComponent  -->
<g id="node11" class="node">
<title>MessageListComponent </title>
<polygon fill="#fb8072" stroke="#000000" points="720.5889,-266 565.4111,-266 565.4111,-230 720.5889,-230 720.5889,-266"/>
<text text-anchor="middle" x="643" y="-243.8" font-family="Times,serif" font-size="14.00" fill="#000000">MessageListComponent </text>
</g>
<!-- ChatBotModule&#45;&gt;MessageListComponent  -->
<g id="edge10" class="edge">
<title>ChatBotModule&#45;&gt;MessageListComponent </title>
<path fill="none" stroke="#000000" stroke-dasharray="5,2" d="M752.7673,-185C697.8742,-185 620.2353,-185 620.2353,-185 620.2353,-185 620.2353,-219.7778 620.2353,-219.7778"/>
<polygon fill="#000000" stroke="#000000" points="616.7354,-219.7778 620.2353,-229.7778 623.7354,-219.7778 616.7354,-219.7778"/>
</g>
<!-- MessageComponent  -->
<g id="node12" class="node">
<title>MessageComponent </title>
<polygon fill="#fb8072" stroke="#000000" points="546.8101,-266 413.1899,-266 413.1899,-230 546.8101,-230 546.8101,-266"/>
<text text-anchor="middle" x="480" y="-243.8" font-family="Times,serif" font-size="14.00" fill="#000000">MessageComponent </text>
</g>
<!-- ChatBotModule&#45;&gt;MessageComponent  -->
<g id="edge11" class="edge">
<title>ChatBotModule&#45;&gt;MessageComponent </title>
<path fill="none" stroke="#000000" stroke-dasharray="5,2" d="M752.8651,-180C656.6721,-180 463.5317,-180 463.5317,-180 463.5317,-180 463.5317,-219.7772 463.5317,-219.7772"/>
<polygon fill="#000000" stroke="#000000" points="460.0318,-219.7772 463.5317,-229.7772 467.0318,-219.7773 460.0318,-219.7772"/>
</g>
<!-- HomeModule -->
<g id="node17" class="node">
<title>HomeModule</title>
<polygon fill="#8dd3c7" stroke="#000000" points="1470.7619,-266 1467.7619,-270 1446.7619,-270 1443.7619,-266 1377.2381,-266 1377.2381,-230 1470.7619,-230 1470.7619,-266"/>
<text text-anchor="middle" x="1424" y="-243.8" font-family="Times,serif" font-size="14.00" fill="#000000">HomeModule</text>
</g>
<!-- ChatBotModule&#45;&gt;HomeModule -->
<g id="edge20" class="edge">
<title>ChatBotModule&#45;&gt;HomeModule</title>
<path fill="none" stroke="#000000" d="M859.4301,-175C973.6488,-175 1231.2698,-175 1231.2698,-175 1231.2698,-175 1231.2698,-254 1231.2698,-254 1231.2698,-254 1366.8529,-254 1366.8529,-254"/>
<polygon fill="#000000" stroke="#000000" points="1366.8529,-257.5001 1376.8529,-254 1366.8529,-250.5001 1366.8529,-257.5001"/>
</g>
<!-- SharedModule -->
<g id="node7" class="node">
<title>SharedModule</title>
<polygon fill="#8dd3c7" stroke="#000000" points="1337.4231,-122 1334.4231,-126 1313.4231,-126 1310.4231,-122 1238.5769,-122 1238.5769,-86 1337.4231,-86 1337.4231,-122"/>
<text text-anchor="middle" x="1288" y="-99.8" font-family="Times,serif" font-size="14.00" fill="#000000">SharedModule</text>
</g>
<!-- SharedModule&#45;&gt;ChatBotModule -->
<g id="edge6" class="edge">
<title>SharedModule&#45;&gt;ChatBotModule</title>
<path fill="none" stroke="#000000" d="M1263.3945,-122.0348C1263.3945,-141.5762 1263.3945,-170 1263.3945,-170 1263.3945,-170 869.3641,-170 869.3641,-170"/>
<polygon fill="#000000" stroke="#000000" points="869.3642,-166.5001 859.3641,-170 869.3641,-173.5001 869.3642,-166.5001"/>
</g>
<!-- ChatBotPortalModule -->
<g id="node16" class="node">
<title>ChatBotPortalModule</title>
<polygon fill="#8dd3c7" stroke="#000000" points="1644.6582,-331 1641.6582,-335 1620.6582,-335 1617.6582,-331 1505.3418,-331 1505.3418,-295 1644.6582,-295 1644.6582,-331"/>
<text text-anchor="middle" x="1575" y="-308.8" font-family="Times,serif" font-size="14.00" fill="#000000">ChatBotPortalModule</text>
</g>
<!-- SharedModule&#45;&gt;ChatBotPortalModule -->
<g id="edge15" class="edge">
<title>SharedModule&#45;&gt;ChatBotPortalModule</title>
<path fill="none" stroke="#000000" d="M1288,-122.3308C1288,-174.3238 1288,-319 1288,-319 1288,-319 1495.1589,-319 1495.1589,-319"/>
<polygon fill="#000000" stroke="#000000" points="1495.1589,-322.5001 1505.1589,-319 1495.1589,-315.5001 1495.1589,-322.5001"/>
</g>
<!-- SharedModule&#45;&gt;HomeModule -->
<g id="edge19" class="edge">
<title>SharedModule&#45;&gt;HomeModule</title>
<path fill="none" stroke="#000000" d="M1312.6056,-122.0411C1312.6056,-159.4476 1312.6056,-242 1312.6056,-242 1312.6056,-242 1367.0816,-242 1367.0816,-242"/>
<polygon fill="#000000" stroke="#000000" points="1367.0816,-245.5001 1377.0816,-242 1367.0815,-238.5001 1367.0816,-245.5001"/>
</g>
<!-- DirectLineService -->
<g id="node13" class="node">
<title>DirectLineService</title>
<ellipse fill="#fdb462" stroke="#000000" cx="316" cy="-104" rx="81.6346" ry="18"/>
<text text-anchor="middle" x="316" y="-99.8" font-family="Times,serif" font-size="14.00" fill="#000000">DirectLineService</text>
</g>
<!-- DirectLineService&#45;&gt;ChatBotModule -->
<g id="edge12" class="edge">
<title>DirectLineService&#45;&gt;ChatBotModule</title>
<path fill="none" stroke="#000000" d="M316,-122.0348C316,-141.5762 316,-170 316,-170 316,-170 742.6286,-170 742.6286,-170"/>
<polygon fill="#000000" stroke="#000000" points="742.6287,-173.5001 752.6286,-170 742.6286,-166.5001 742.6287,-173.5001"/>
</g>
<!-- AgentTransferService -->
<g id="node14" class="node">
<title>AgentTransferService</title>
<ellipse fill="#fdb462" stroke="#000000" cx="120" cy="-104" rx="96.0842" ry="18"/>
<text text-anchor="middle" x="120" y="-99.8" font-family="Times,serif" font-size="14.00" fill="#000000">AgentTransferService</text>
</g>
<!-- AgentTransferService&#45;&gt;ChatBotModule -->
<g id="edge13" class="edge">
<title>AgentTransferService&#45;&gt;ChatBotModule</title>
<path fill="none" stroke="#000000" d="M120,-122.2843C120,-143.3211 120,-175 120,-175 120,-175 742.7416,-175 742.7416,-175"/>
<polygon fill="#000000" stroke="#000000" points="742.7416,-178.5001 752.7416,-175 742.7415,-171.5001 742.7416,-178.5001"/>
</g>
<!-- ChatBotPortalComponent -->
<g id="node15" class="node">
<title>ChatBotPortalComponent</title>
<polygon fill="#ffffb3" stroke="#000000" points="1656.941,-266 1495.059,-266 1495.059,-230 1656.941,-230 1656.941,-266"/>
<text text-anchor="middle" x="1576" y="-243.8" font-family="Times,serif" font-size="14.00" fill="#000000">ChatBotPortalComponent</text>
</g>
<!-- ChatBotPortalComponent&#45;&gt;ChatBotPortalModule -->
<g id="edge14" class="edge">
<title>ChatBotPortalComponent&#45;&gt;ChatBotPortalModule</title>
<path fill="none" stroke="#000000" d="M1575,-266.1061C1575,-266.1061 1575,-284.991 1575,-284.991"/>
<polygon fill="#000000" stroke="#000000" points="1571.5001,-284.9909 1575,-294.991 1578.5001,-284.991 1571.5001,-284.9909"/>
</g>
<!-- ChatBotPortalComponent  -->
<g id="node18" class="node">
<title>ChatBotPortalComponent </title>
<polygon fill="#80b1d3" stroke="#000000" points="1657.4404,-396 1492.5596,-396 1492.5596,-360 1657.4404,-360 1657.4404,-396"/>
<text text-anchor="middle" x="1575" y="-373.8" font-family="Times,serif" font-size="14.00" fill="#000000">ChatBotPortalComponent </text>
</g>
<!-- ChatBotPortalModule&#45;&gt;ChatBotPortalComponent  -->
<g id="edge17" class="edge">
<title>ChatBotPortalModule&#45;&gt;ChatBotPortalComponent </title>
<path fill="none" stroke="#000000" stroke-dasharray="1,5" d="M1575,-331.1061C1575,-331.1061 1575,-349.991 1575,-349.991"/>
<polygon fill="#000000" stroke="#000000" points="1571.5001,-349.9909 1575,-359.991 1578.5001,-349.991 1571.5001,-349.9909"/>
</g>
<!-- HomeModule&#45;&gt;ChatBotPortalModule -->
<g id="edge16" class="edge">
<title>HomeModule&#45;&gt;ChatBotPortalModule</title>
<path fill="none" stroke="#000000" d="M1424,-266.0225C1424,-283.3734 1424,-307 1424,-307 1424,-307 1495.246,-307 1495.246,-307"/>
<polygon fill="#000000" stroke="#000000" points="1495.2461,-310.5001 1505.246,-307 1495.246,-303.5001 1495.2461,-310.5001"/>
</g>
<!-- HomeComponent  -->
<g id="node20" class="node">
<title>HomeComponent </title>
<polygon fill="#fb8072" stroke="#000000" points="1496.5442,-190 1377.4558,-190 1377.4558,-154 1496.5442,-154 1496.5442,-190"/>
<text text-anchor="middle" x="1437" y="-167.8" font-family="Times,serif" font-size="14.00" fill="#000000">HomeComponent </text>
</g>
<!-- HomeModule&#45;&gt;HomeComponent  -->
<g id="edge21" class="edge">
<title>HomeModule&#45;&gt;HomeComponent </title>
<path fill="none" stroke="#000000" stroke-dasharray="5,2" d="M1408.6122,-229.9891C1408.6122,-229.9891 1408.6122,-200.145 1408.6122,-200.145"/>
<polygon fill="#000000" stroke="#000000" points="1412.1123,-200.145 1408.6122,-190.145 1405.1123,-200.1451 1412.1123,-200.145"/>
</g>
<!-- HomeComponent -->
<g id="node19" class="node">
<title>HomeComponent</title>
<polygon fill="#ffffb3" stroke="#000000" points="1636.5451,-190 1521.4549,-190 1521.4549,-154 1636.5451,-154 1636.5451,-190"/>
<text text-anchor="middle" x="1579" y="-167.8" font-family="Times,serif" font-size="14.00" fill="#000000">HomeComponent</text>
</g>
<!-- HomeComponent&#45;&gt;HomeModule -->
<g id="edge18" class="edge">
<title>HomeComponent&#45;&gt;HomeModule</title>
<path fill="none" stroke="#000000" d="M1579,-190.1097C1579,-199.897 1579,-210 1579,-210 1579,-210 1439.7465,-210 1439.7465,-210 1439.7465,-210 1439.7465,-219.8903 1439.7465,-219.8903"/>
<polygon fill="#000000" stroke="#000000" points="1436.2466,-219.8903 1439.7465,-229.8903 1443.2466,-219.8904 1436.2466,-219.8903"/>
</g>
</g>
</svg>
