<?xml version="1.0" encoding="UTF-8" standalone="no"?>
<!DOCTYPE svg PUBLIC "-//W3C//DTD SVG 1.1//EN"
 "http://www.w3.org/Graphics/SVG/1.1/DTD/svg11.dtd">
<!-- Generated by graphviz version 2.40.1 (20161225.0304)
 -->
<!-- Title: dependencies Pages: 1 -->
<svg width="504pt" height="284pt"
 viewBox="0.00 0.00 504.00 284.00" xmlns="http://www.w3.org/2000/svg" xmlns:xlink="http://www.w3.org/1999/xlink">
<g id="graph0" class="graph" transform="scale(1 1) rotate(0) translate(4 280)">
<title>dependencies</title>
<polygon fill="#ffffff" stroke="transparent" points="-4,4 -4,-280 500,-280 500,4 -4,4"/>
<text text-anchor="start" x="227.0091" y="-42.4" font-family="sans-serif" font-weight="bold" font-size="14.00" fill="#000000">Legend</text>
<polygon fill="#ffffb3" stroke="transparent" points="14,-10 14,-30 34,-30 34,-10 14,-10"/>
<text text-anchor="start" x="37.629" y="-15.4" font-family="sans-serif" font-size="14.00" fill="#000000"> &#160;Declarations</text>
<polygon fill="#8dd3c7" stroke="transparent" points="127,-10 127,-30 147,-30 147,-10 127,-10"/>
<text text-anchor="start" x="150.7251" y="-15.4" font-family="sans-serif" font-size="14.00" fill="#000000"> &#160;Module</text>
<polygon fill="#80b1d3" stroke="transparent" points="213,-10 213,-30 233,-30 233,-10 213,-10"/>
<text text-anchor="start" x="236.7812" y="-15.4" font-family="sans-serif" font-size="14.00" fill="#000000"> &#160;Bootstrap</text>
<polygon fill="#fdb462" stroke="transparent" points="310,-10 310,-30 330,-30 330,-10 310,-10"/>
<text text-anchor="start" x="333.6732" y="-15.4" font-family="sans-serif" font-size="14.00" fill="#000000"> &#160;Providers</text>
<polygon fill="#fb8072" stroke="transparent" points="406,-10 406,-30 426,-30 426,-10 406,-10"/>
<text text-anchor="start" x="429.7258" y="-15.4" font-family="sans-serif" font-size="14.00" fill="#000000"> &#160;Exports</text>
<g id="clust1" class="cluster">
<title>cluster_ChatBotPortalModule</title>
<polygon fill="none" stroke="#000000" stroke-dasharray="1,5" points="34,-70 34,-268 462,-268 462,-70 34,-70"/>
</g>
<g id="clust2" class="cluster">
<title>cluster_ChatBotPortalModule_declarations</title>
<polygon fill="none" stroke="#000000" points="276,-78 276,-130 454,-130 454,-78 276,-78"/>
</g>
<g id="clust4" class="cluster">
<title>cluster_ChatBotPortalModule_imports</title>
<polygon fill="none" stroke="#000000" points="42,-78 42,-130 268,-130 268,-78 42,-78"/>
</g>
<g id="clust6" class="cluster">
<title>cluster_ChatBotPortalModule_bootstrap</title>
<polygon fill="none" stroke="#000000" points="121,-208 121,-260 301,-260 301,-208 121,-208"/>
</g>
<!-- ChatBotPortalComponent -->
<g id="node1" class="node">
<title>ChatBotPortalComponent</title>
<polygon fill="#ffffb3" stroke="#000000" points="445.941,-122 284.059,-122 284.059,-86 445.941,-86 445.941,-122"/>
<text text-anchor="middle" x="365" y="-99.8" font-family="Times,serif" font-size="14.00" fill="#000000">ChatBotPortalComponent</text>
</g>
<!-- ChatBotPortalModule -->
<g id="node2" class="node">
<title>ChatBotPortalModule</title>
<polygon fill="#8dd3c7" stroke="#000000" points="280.6582,-187 277.6582,-191 256.6582,-191 253.6582,-187 141.3418,-187 141.3418,-151 280.6582,-151 280.6582,-187"/>
<text text-anchor="middle" x="211" y="-164.8" font-family="Times,serif" font-size="14.00" fill="#000000">ChatBotPortalModule</text>
</g>
<!-- ChatBotPortalComponent&#45;&gt;ChatBotPortalModule -->
<g id="edge1" class="edge">
<title>ChatBotPortalComponent&#45;&gt;ChatBotPortalModule</title>
<path fill="none" stroke="#000000" d="M288.875,-122.1061C288.875,-141.3391 288.875,-169 288.875,-169 288.875,-169 288.0709,-169 288.0709,-169"/>
<polygon fill="#000000" stroke="#000000" points="290.8344,-165.5001 280.8343,-169 290.8343,-172.5001 290.8344,-165.5001"/>
</g>
<!-- ChatBotPortalComponent  -->
<g id="node5" class="node">
<title>ChatBotPortalComponent </title>
<polygon fill="#80b1d3" stroke="#000000" points="293.4404,-252 128.5596,-252 128.5596,-216 293.4404,-216 293.4404,-252"/>
<text text-anchor="middle" x="211" y="-229.8" font-family="Times,serif" font-size="14.00" fill="#000000">ChatBotPortalComponent </text>
</g>
<!-- ChatBotPortalModule&#45;&gt;ChatBotPortalComponent  -->
<g id="edge4" class="edge">
<title>ChatBotPortalModule&#45;&gt;ChatBotPortalComponent </title>
<path fill="none" stroke="#000000" stroke-dasharray="1,5" d="M211,-187.1061C211,-187.1061 211,-205.991 211,-205.991"/>
<polygon fill="#000000" stroke="#000000" points="207.5001,-205.9909 211,-215.991 214.5001,-205.991 207.5001,-205.9909"/>
</g>
<!-- SharedModule -->
<g id="node3" class="node">
<title>SharedModule</title>
<polygon fill="#8dd3c7" stroke="#000000" points="260.4231,-122 257.4231,-126 236.4231,-126 233.4231,-122 161.5769,-122 161.5769,-86 260.4231,-86 260.4231,-122"/>
<text text-anchor="middle" x="211" y="-99.8" font-family="Times,serif" font-size="14.00" fill="#000000">SharedModule</text>
</g>
<!-- SharedModule&#45;&gt;ChatBotPortalModule -->
<g id="edge2" class="edge">
<title>SharedModule&#45;&gt;ChatBotPortalModule</title>
<path fill="none" stroke="#000000" d="M211,-122.1061C211,-122.1061 211,-140.991 211,-140.991"/>
<polygon fill="#000000" stroke="#000000" points="207.5001,-140.9909 211,-150.991 214.5001,-140.991 207.5001,-140.9909"/>
</g>
<!-- HomeModule -->
<g id="node4" class="node">
<title>HomeModule</title>
<polygon fill="#8dd3c7" stroke="#000000" points="143.7619,-122 140.7619,-126 119.7619,-126 116.7619,-122 50.2381,-122 50.2381,-86 143.7619,-86 143.7619,-122"/>
<text text-anchor="middle" x="97" y="-99.8" font-family="Times,serif" font-size="14.00" fill="#000000">HomeModule</text>
</g>
<!-- HomeModule&#45;&gt;ChatBotPortalModule -->
<g id="edge3" class="edge">
<title>HomeModule&#45;&gt;ChatBotPortalModule</title>
<path fill="none" stroke="#000000" d="M134.8505,-122.1061C134.8505,-141.3391 134.8505,-169 134.8505,-169 134.8505,-169 135.4736,-169 135.4736,-169"/>
<polygon fill="#000000" stroke="#000000" points="131.0821,-172.5002 141.0821,-169 131.082,-165.5002 131.0821,-172.5002"/>
</g>
</g>
</svg>
